<svg width="91" height="91" viewBox="0 0 91 91" fill="none" xmlns="http://www.w3.org/2000/svg">
<g clip-path="url(#clip0)">
<path d="M34.2388 78.6254L34.2388 78.6283C34.2395 78.6318 34.2402 78.6353 34.2416 78.6396C34.2579 78.8991 34.335 79.1544 34.4389 79.4011C34.47 79.4775 34.5061 79.5433 34.5443 79.614C34.6383 79.79 34.7529 79.9555 34.8908 80.1104C34.9403 80.1683 34.9827 80.2277 35.0393 80.2815C35.0675 80.3098 35.0859 80.3423 35.1149 80.3685C35.2938 80.5276 35.4911 80.657 35.6969 80.7581C35.7174 80.7701 35.7414 80.7715 35.7633 80.7821C35.9946 80.8889 36.2336 80.9497 36.4761 80.9815C36.51 80.9858 36.5404 81.0063 36.5751 81.0098L52.4546 82.3073C53.6701 82.407 54.5985 81.5041 54.5271 80.2871C54.455 79.0723 53.4106 78.0067 52.1922 77.907L43.6313 77.2063C50.1346 72.2247 54.571 65.3714 54.7781 65.0455C69.0468 44.4595 65.2857 16.0331 46.3947 1.67737C45.4592 0.966731 44.2592 0.995723 43.5585 1.69647C43.4835 1.77142 43.4149 1.85274 43.3513 1.94183C42.7057 2.87451 43.0197 4.26609 44.0527 5.0531C60.8798 17.8397 64.0115 43.4759 50.9972 62.2545C50.9414 62.3443 46.3607 69.4281 40.0067 74.0568L42.4702 64.3907C42.758 63.2572 42.0304 61.9738 40.8467 61.5212C39.6623 61.0666 38.4737 61.6202 38.1788 62.7509L34.2954 77.9876C34.2445 78.1955 34.2268 78.4098 34.2388 78.6254Z" fill="#1D1D1B"/>
</g>
<defs>
<clipPath id="clip0">
<rect width="64" height="64" fill="white" transform="translate(90.5098 45.2549) rotate(135)"/>
</clipPath>
</defs>
</svg>
