<svg width="300" height="300" viewBox="0 0 300 300" fill="none" xmlns="http://www.w3.org/2000/svg">
<mask id="mask0" mask-type="alpha" maskUnits="userSpaceOnUse" x="0" y="0" width="300" height="300">
<circle cx="150" cy="150" r="150" fill="black"/>
</mask>
<g mask="url(#mask0)">
<circle cx="13" cy="17" r="4" fill="#F3F7FE"/>
<circle cx="41" cy="17" r="4" fill="#F3F7FE"/>
<circle cx="69" cy="17" r="4" fill="#F3F7FE"/>
<circle cx="97" cy="17" r="4" fill="#F3F7FE"/>
<circle cx="125" cy="17" r="4" fill="#F3F7FE"/>
<circle cx="153" cy="17" r="4" fill="#F3F7FE"/>
<circle cx="181" cy="17" r="4" fill="#F3F7FE"/>
<circle cx="209" cy="17" r="4" fill="#F3F7FE"/>
<circle cx="237" cy="17" r="4" fill="#F3F7FE"/>
<circle cx="265" cy="17" r="4" fill="#F3F7FE"/>
<circle cx="293" cy="17" r="4" fill="#F3F7FE"/>
<circle cx="13" cy="45" r="4" fill="#F3F7FE"/>
<circle cx="41" cy="45" r="4" fill="#F3F7FE"/>
<circle cx="69" cy="45" r="4" fill="#F3F7FE"/>
<circle cx="97" cy="45" r="4" fill="#F3F7FE"/>
<circle cx="125" cy="45" r="4" fill="#F3F7FE"/>
<circle cx="153" cy="45" r="4" fill="#F3F7FE"/>
<circle cx="181" cy="45" r="4" fill="#F3F7FE"/>
<circle cx="209" cy="45" r="4" fill="#F3F7FE"/>
<circle cx="237" cy="45" r="4" fill="#F3F7FE"/>
<circle cx="265" cy="45" r="4" fill="#F3F7FE"/>
<circle cx="293" cy="45" r="4" fill="#F3F7FE"/>
<circle cx="13" cy="73" r="4" fill="#F3F7FE"/>
<circle cx="41" cy="73" r="4" fill="#F3F7FE"/>
<circle cx="69" cy="73" r="4" fill="#F3F7FE"/>
<circle cx="97" cy="73" r="4" fill="#F3F7FE"/>
<circle cx="125" cy="73" r="4" fill="#F3F7FE"/>
<circle cx="153" cy="73" r="4" fill="#F3F7FE"/>
<circle cx="181" cy="73" r="4" fill="#F3F7FE"/>
<circle cx="209" cy="73" r="4" fill="#F3F7FE"/>
<circle cx="237" cy="73" r="4" fill="#F3F7FE"/>
<circle cx="265" cy="73" r="4" fill="#F3F7FE"/>
<circle cx="293" cy="73" r="4" fill="#F3F7FE"/>
<circle cx="13" cy="101" r="4" fill="#F3F7FE"/>
<circle cx="41" cy="101" r="4" fill="#F3F7FE"/>
<circle cx="69" cy="101" r="4" fill="#F3F7FE"/>
<circle cx="97" cy="101" r="4" fill="#F3F7FE"/>
<circle cx="125" cy="101" r="4" fill="#F3F7FE"/>
<circle cx="153" cy="101" r="4" fill="#F3F7FE"/>
<circle cx="181" cy="101" r="4" fill="#F3F7FE"/>
<circle cx="209" cy="101" r="4" fill="#F3F7FE"/>
<circle cx="237" cy="101" r="4" fill="#F3F7FE"/>
<circle cx="265" cy="101" r="4" fill="#F3F7FE"/>
<circle cx="293" cy="101" r="4" fill="#F3F7FE"/>
<circle cx="13" cy="129" r="4" fill="#F3F7FE"/>
<circle cx="41" cy="129" r="4" fill="#F3F7FE"/>
<circle cx="69" cy="129" r="4" fill="#F3F7FE"/>
<circle cx="97" cy="129" r="4" fill="#F3F7FE"/>
<circle cx="125" cy="129" r="4" fill="#F3F7FE"/>
<circle cx="153" cy="129" r="4" fill="#F3F7FE"/>
<circle cx="181" cy="129" r="4" fill="#F3F7FE"/>
<circle cx="209" cy="129" r="4" fill="#F3F7FE"/>
<circle cx="237" cy="129" r="4" fill="#F3F7FE"/>
<circle cx="265" cy="129" r="4" fill="#F3F7FE"/>
<circle cx="293" cy="129" r="4" fill="#F3F7FE"/>
<circle cx="13" cy="157" r="4" fill="#F3F7FE"/>
<circle cx="41" cy="157" r="4" fill="#F3F7FE"/>
<circle cx="69" cy="157" r="4" fill="#F3F7FE"/>
<circle cx="97" cy="157" r="4" fill="#F3F7FE"/>
<circle cx="125" cy="157" r="4" fill="#F3F7FE"/>
<circle cx="153" cy="157" r="4" fill="#F3F7FE"/>
<circle cx="181" cy="157" r="4" fill="#F3F7FE"/>
<circle cx="209" cy="157" r="4" fill="#F3F7FE"/>
<circle cx="237" cy="157" r="4" fill="#F3F7FE"/>
<circle cx="265" cy="157" r="4" fill="#F3F7FE"/>
<circle cx="293" cy="157" r="4" fill="#F3F7FE"/>
<circle cx="13" cy="185" r="4" fill="#F3F7FE"/>
<circle cx="41" cy="185" r="4" fill="#F3F7FE"/>
<circle cx="69" cy="185" r="4" fill="#F3F7FE"/>
<circle cx="97" cy="185" r="4" fill="#F3F7FE"/>
<circle cx="125" cy="185" r="4" fill="#F3F7FE"/>
<circle cx="153" cy="185" r="4" fill="#F3F7FE"/>
<circle cx="181" cy="185" r="4" fill="#F3F7FE"/>
<circle cx="209" cy="185" r="4" fill="#F3F7FE"/>
<circle cx="237" cy="185" r="4" fill="#F3F7FE"/>
<circle cx="265" cy="185" r="4" fill="#F3F7FE"/>
<circle cx="293" cy="185" r="4" fill="#F3F7FE"/>
<circle cx="13" cy="213" r="4" fill="#F3F7FE"/>
<circle cx="41" cy="213" r="4" fill="#F3F7FE"/>
<circle cx="69" cy="213" r="4" fill="#F3F7FE"/>
<circle cx="97" cy="213" r="4" fill="#F3F7FE"/>
<circle cx="125" cy="213" r="4" fill="#F3F7FE"/>
<circle cx="153" cy="213" r="4" fill="#F3F7FE"/>
<circle cx="181" cy="213" r="4" fill="#F3F7FE"/>
<circle cx="209" cy="213" r="4" fill="#F3F7FE"/>
<circle cx="237" cy="213" r="4" fill="#F3F7FE"/>
<circle cx="265" cy="213" r="4" fill="#F3F7FE"/>
<circle cx="293" cy="213" r="4" fill="#F3F7FE"/>
<circle cx="13" cy="241" r="4" fill="#F3F7FE"/>
<circle cx="41" cy="241" r="4" fill="#F3F7FE"/>
<circle cx="69" cy="241" r="4" fill="#F3F7FE"/>
<circle cx="97" cy="241" r="4" fill="#F3F7FE"/>
<circle cx="125" cy="241" r="4" fill="#F3F7FE"/>
<circle cx="153" cy="241" r="4" fill="#F3F7FE"/>
<circle cx="181" cy="241" r="4" fill="#F3F7FE"/>
<circle cx="209" cy="241" r="4" fill="#F3F7FE"/>
<circle cx="237" cy="241" r="4" fill="#F3F7FE"/>
<circle cx="265" cy="241" r="4" fill="#F3F7FE"/>
<circle cx="293" cy="241" r="4" fill="#F3F7FE"/>
<circle cx="13" cy="269" r="4" fill="#F3F7FE"/>
<circle cx="41" cy="269" r="4" fill="#F3F7FE"/>
<circle cx="69" cy="269" r="4" fill="#F3F7FE"/>
<circle cx="97" cy="269" r="4" fill="#F3F7FE"/>
<circle cx="125" cy="269" r="4" fill="#F3F7FE"/>
<circle cx="153" cy="269" r="4" fill="#F3F7FE"/>
<circle cx="181" cy="269" r="4" fill="#F3F7FE"/>
<circle cx="209" cy="269" r="4" fill="#F3F7FE"/>
<circle cx="237" cy="269" r="4" fill="#F3F7FE"/>
<circle cx="265" cy="269" r="4" fill="#F3F7FE"/>
<circle cx="293" cy="269" r="4" fill="#F3F7FE"/>
<circle cx="13" cy="297" r="4" fill="#F3F7FE"/>
<circle cx="41" cy="297" r="4" fill="#F3F7FE"/>
<circle cx="69" cy="297" r="4" fill="#F3F7FE"/>
<circle cx="97" cy="297" r="4" fill="#F3F7FE"/>
<circle cx="125" cy="297" r="4" fill="#F3F7FE"/>
<circle cx="153" cy="297" r="4" fill="#F3F7FE"/>
<circle cx="181" cy="297" r="4" fill="#F3F7FE"/>
<circle cx="209" cy="297" r="4" fill="#F3F7FE"/>
<circle cx="237" cy="297" r="4" fill="#F3F7FE"/>
<circle cx="265" cy="297" r="4" fill="#F3F7FE"/>
<circle cx="293" cy="297" r="4" fill="#F3F7FE"/>
</g>
</svg>
