<svg width="119" height="36" viewBox="0 0 119 36" fill="none" xmlns="http://www.w3.org/2000/svg">
<path d="M16.6738 20.2461C16.5566 21.5547 16.166 22.7266 15.502 23.7617C14.8379 24.7969 13.9883 25.666 12.9531 26.3691C11.9375 27.0918 10.7852 27.6387 9.49609 28.0098C8.20703 28.3809 6.87891 28.5664 5.51172 28.5664C5.00391 28.5664 4.52539 28.5273 4.07617 28.4492C3.64648 28.3906 3.25586 28.3125 2.9043 28.2148C2.55273 28.1172 2.25 28.0195 1.99609 27.9219C1.76172 27.8438 1.5957 27.7754 1.49805 27.7168C1.32227 27.6191 1.17578 27.4922 1.05859 27.3359C0.960938 27.1992 0.902344 26.9941 0.882812 26.7207C0.863281 26.5645 0.853516 26.4375 0.853516 26.3398C0.853516 26.2617 0.863281 26.1738 0.882812 26.0762C0.902344 25.9785 0.941406 25.8418 1 25.666C1.03906 25.5098 1.09766 25.2852 1.17578 24.9922C1.21484 24.8164 1.36133 24.2598 1.61523 23.3223C1.88867 22.4043 2.21094 21.2812 2.58203 19.9531C2.95312 18.6055 3.35352 17.1504 3.7832 15.5879C4.23242 14.0254 4.66211 12.5117 5.07227 11.0469C5.48242 9.58203 5.85352 8.26367 6.18555 7.0918C6.51758 5.90039 6.76172 5.02148 6.91797 4.45508C6.64453 4.65039 6.37109 4.85547 6.09766 5.07031C5.84375 5.28516 5.58008 5.51953 5.30664 5.77344C5.01367 6.04688 4.7207 6.14453 4.42773 6.06641C4.1543 5.96875 3.95898 5.72461 3.8418 5.33398C3.80273 5.13867 3.77344 4.93359 3.75391 4.71875C3.73438 4.54297 3.73438 4.34766 3.75391 4.13281C3.79297 3.89844 3.87109 3.67383 3.98828 3.45898C4.63281 3.06836 5.25781 2.73633 5.86328 2.46289C6.48828 2.18945 7.08398 1.94531 7.65039 1.73047C7.76758 1.39844 7.89453 1.14453 8.03125 0.96875C8.1875 0.792969 8.34375 0.675781 8.5 0.617188C8.65625 0.558594 8.82227 0.539063 8.99805 0.558594C9.17383 0.578125 9.35938 0.607422 9.55469 0.646484C9.98438 0.744141 10.2676 0.880859 10.4043 1.05664C10.6777 1.01758 10.9414 0.988281 11.1953 0.96875C11.4492 0.949219 11.7129 0.939453 11.9863 0.939453C13.1191 0.939453 14.1055 1.08594 14.9453 1.37891C15.7852 1.67188 16.4688 2.07227 16.9961 2.58008C17.543 3.06836 17.9336 3.64453 18.168 4.30859C18.4023 4.97266 18.4902 5.67578 18.4316 6.41797C18.373 7.0625 18.1973 7.73633 17.9043 8.43945C17.6309 9.12305 17.2598 9.80664 16.791 10.4902C16.3223 11.1543 15.7754 11.8086 15.1504 12.4531C14.5254 13.0781 13.832 13.6543 13.0703 14.1816C13.6758 14.5332 14.2129 14.9434 14.6816 15.4121C15.1504 15.8809 15.541 16.3887 15.8535 16.9355C16.166 17.4824 16.3906 18.0391 16.5273 18.6055C16.6641 19.1719 16.7129 19.7188 16.6738 20.2461ZM6.97656 13.0684C6.9375 13.2637 6.88867 13.459 6.83008 13.6543C6.79102 13.8496 6.74219 14.0547 6.68359 14.2695C6.91797 14.0156 7.30859 13.7812 7.85547 13.5664C8.42188 13.3516 8.95898 13.2441 9.4668 13.2441C9.74023 13.2441 10.0039 13.2637 10.2578 13.3027C10.5117 13.3223 10.7559 13.3516 10.9902 13.3906C11.5371 13.0391 12.0645 12.5898 12.5723 12.043C13.0801 11.4766 13.5195 10.8809 13.8906 10.2559C14.2812 9.61133 14.5938 8.95703 14.8281 8.29297C15.082 7.62891 15.2383 7.01367 15.2969 6.44727C15.4141 5.09961 15.1797 4.10352 14.5938 3.45898C14.0273 2.79492 13.2168 2.46289 12.1621 2.46289C11.459 2.46289 10.7266 2.58984 9.96484 2.84375C9.80859 3.35156 9.61328 3.98633 9.37891 4.74805C9.14453 5.49023 8.89062 6.31055 8.61719 7.20898C8.36328 8.10742 8.08984 9.05469 7.79688 10.0508C7.50391 11.0469 7.23047 12.0527 6.97656 13.0684ZM6.47852 15.002C6.20508 16.0566 5.93164 17.1992 5.6582 18.4297C5.4043 19.4844 5.13086 20.7148 4.83789 22.1211C4.54492 23.5078 4.23242 24.9922 3.90039 26.5742C4.01758 26.6719 4.17383 26.7402 4.36914 26.7793C4.56445 26.8184 4.75977 26.8574 4.95508 26.8965C5.16992 26.9355 5.4043 26.9551 5.6582 26.9551C6.53711 26.9551 7.42578 26.7695 8.32422 26.3984C9.24219 26.0469 10.082 25.5391 10.8438 24.875C11.6055 24.2109 12.2402 23.4102 12.748 22.4727C13.2754 21.5156 13.5879 20.4512 13.6855 19.2793C13.7246 18.752 13.6855 18.2832 13.5684 17.873C13.4707 17.4434 13.3145 17.0625 13.0996 16.7305C12.9043 16.3789 12.6699 16.0762 12.3965 15.8223C12.1426 15.5488 11.8691 15.3145 11.5762 15.1191C10.6777 15.6074 9.69141 16.0176 8.61719 16.3496C8.26562 16.4473 7.96289 16.4668 7.70898 16.4082C7.45508 16.3301 7.24023 16.2227 7.06445 16.0859C6.88867 15.9297 6.75195 15.7539 6.6543 15.5586C6.55664 15.3633 6.49805 15.1777 6.47852 15.002ZM32.4941 16.9062C31.9082 17.7656 31.2441 18.6055 30.502 19.4258C29.7598 20.2266 28.9688 20.9492 28.1289 21.5938C27.3086 22.2188 26.459 22.7266 25.5801 23.1172C24.7207 23.5078 23.8809 23.7031 23.0605 23.7031C22.6309 23.7031 22.1621 23.5957 21.6543 23.3809C21.166 23.1855 20.7168 22.873 20.3066 22.4434C19.8965 22.0137 19.5645 21.457 19.3105 20.7734C19.0762 20.0898 19.0078 19.2598 19.1055 18.2832C19.1836 17.4824 19.4277 16.6426 19.8379 15.7637C20.2676 14.8652 20.7852 14.0449 21.3906 13.3027C22.0156 12.5605 22.709 11.9453 23.4707 11.457C24.252 10.9688 25.0332 10.7246 25.8145 10.7246C26.5566 10.7246 27.0938 10.9102 27.4258 11.2812C27.7578 11.6523 27.9043 12.1113 27.8652 12.6582C27.8066 13.2637 27.6309 13.8203 27.3379 14.3281C27.0645 14.8359 26.7324 15.2949 26.3418 15.7051C25.9512 16.1152 25.5312 16.4863 25.082 16.8184C24.6523 17.1504 24.2422 17.4531 23.8516 17.7266C23.4219 18.0195 23.0117 18.3027 22.6211 18.5762C22.2305 18.8301 21.8887 19.0645 21.5957 19.2793C21.6152 19.7676 21.7031 20.1777 21.8594 20.5098C22.0156 20.8418 22.2109 21.1152 22.4453 21.3301C22.6797 21.5254 22.9434 21.6719 23.2363 21.7695C23.5488 21.8477 23.8613 21.8867 24.1738 21.8867C24.8379 21.8867 25.5312 21.6816 26.2539 21.2715C26.9766 20.8418 27.6797 20.334 28.3633 19.748C29.0664 19.1426 29.7109 18.5176 30.2969 17.873C30.9023 17.2285 31.4004 16.6719 31.791 16.2031C31.9277 16.0469 32.0645 15.959 32.2012 15.9395C32.3574 15.9004 32.4746 15.9199 32.5527 15.998C32.6504 16.0566 32.6992 16.1738 32.6992 16.3496C32.6992 16.5059 32.6309 16.6914 32.4941 16.9062ZM24.9941 12.3945C24.7598 12.3945 24.4766 12.5117 24.1445 12.7461C23.832 12.9805 23.5195 13.3223 23.207 13.7715C22.8945 14.2012 22.6016 14.7383 22.3281 15.3828C22.0547 16.0078 21.8496 16.7305 21.7129 17.5508C21.9473 17.375 22.2012 17.1992 22.4746 17.0234C22.748 16.8281 23.0215 16.623 23.2949 16.4082C24.1348 15.7637 24.7207 15.1973 25.0527 14.709C25.3848 14.2207 25.5703 13.8008 25.6094 13.4492C25.6484 13.0781 25.6094 12.8145 25.4922 12.6582C25.375 12.4824 25.209 12.3945 24.9941 12.3945ZM45.4141 17.1699C45.1406 17.5605 44.7891 18.0488 44.3594 18.6348C43.9297 19.2012 43.4805 19.7773 43.0117 20.3633C42.5625 20.9297 42.1133 21.457 41.6641 21.9453C41.2344 22.4141 40.873 22.7461 40.5801 22.9414C40.3848 23.0586 40.1602 23.1562 39.9062 23.2344C39.6523 23.3125 39.3887 23.3613 39.1152 23.3809C38.8613 23.4004 38.6172 23.3809 38.3828 23.3223C38.1484 23.2832 37.9434 23.2051 37.7676 23.0879C37.5918 22.9512 37.4453 22.7559 37.3281 22.502C37.2305 22.2871 37.1328 22.0039 37.0352 21.6523C36.957 21.3008 36.9277 20.8613 36.9473 20.334C36.4785 21.1152 35.9609 21.7207 35.3945 22.1504C34.8281 22.5605 34.291 22.8633 33.7832 23.0586C33.1973 23.2734 32.6113 23.4004 32.0254 23.4395C31.752 23.4395 31.459 23.3418 31.1465 23.1465C30.834 22.9707 30.5703 22.6875 30.3555 22.2969C30.1406 21.8867 30.0039 21.3691 29.9453 20.7441C29.8867 20.0996 29.9648 19.3379 30.1797 18.459C30.4531 17.2676 30.8828 16.1836 31.4688 15.207C32.0742 14.2305 32.7285 13.4004 33.4316 12.7168C34.1348 12.0137 34.8281 11.4863 35.5117 11.1348C36.1953 10.7832 36.7617 10.627 37.2109 10.666C37.7383 10.7637 38.168 10.9199 38.5 11.1348C38.7734 11.3301 38.9492 11.623 39.0273 12.0137C39.125 12.3848 38.9688 12.8828 38.5586 13.5078C38.832 13.4492 39.0566 13.4102 39.2324 13.3906C39.4277 13.3711 39.5742 13.3613 39.6719 13.3613C39.7891 13.3613 39.8672 13.3711 39.9062 13.3906C39.9258 13.4297 39.9355 13.5176 39.9355 13.6543C39.9355 13.7715 39.9062 13.9961 39.8477 14.3281C39.7891 14.6602 39.7012 15.1094 39.584 15.6758C39.4668 16.2422 39.3105 16.9746 39.1152 17.873C39.0762 18.0488 39.0371 18.2148 38.998 18.3711C38.9785 18.5078 38.9492 18.6543 38.9102 18.8105C38.8906 18.9473 38.8613 19.1133 38.8223 19.3086C38.7832 19.5039 38.7344 19.748 38.6758 20.041C38.6562 20.2168 38.6465 20.4121 38.6465 20.627C38.666 20.8223 38.7051 21.0078 38.7637 21.1836C38.8223 21.3594 38.9102 21.5059 39.0273 21.623C39.1641 21.7207 39.3496 21.7695 39.584 21.7695C39.7793 21.7695 40.0332 21.6523 40.3457 21.418C40.6582 21.1641 40.9902 20.8516 41.3418 20.4805C41.6934 20.0898 42.0547 19.6699 42.4258 19.2207C42.8164 18.752 43.1777 18.3027 43.5098 17.873C43.8418 17.4434 44.1348 17.0625 44.3887 16.7305C44.6621 16.3984 44.8574 16.1543 44.9746 15.998C45.1309 15.8223 45.2871 15.7246 45.4434 15.7051C45.5996 15.666 45.7168 15.7051 45.7949 15.8223C45.873 15.9395 45.8828 16.1152 45.8242 16.3496C45.7852 16.584 45.6484 16.8574 45.4141 17.1699ZM36.8301 18.459C36.9277 18.0684 37.0449 17.6094 37.1816 17.082C37.3184 16.5547 37.4355 16.0469 37.5332 15.5586C37.6309 15.0703 37.6992 14.6699 37.7383 14.3574C37.7969 14.0254 37.7871 13.8691 37.709 13.8887C37.6113 13.9082 37.5039 13.9375 37.3867 13.9766C37.2891 14.0156 37.1621 14.0449 37.0059 14.0645C36.8496 14.084 36.6934 14.1133 36.5371 14.1523C36.6934 13.8398 36.7812 13.5859 36.8008 13.3906C36.8398 13.1758 36.8496 13.0098 36.8301 12.8926C36.8105 12.7559 36.7715 12.6484 36.7129 12.5703C36.498 12.3945 36.1172 12.541 35.5703 13.0098C35.043 13.459 34.4277 14.2988 33.7246 15.5293C33.4316 16.0371 33.1973 16.584 33.0215 17.1699C32.8457 17.7363 32.7188 18.2734 32.6406 18.7812C32.582 19.2891 32.5723 19.7383 32.6113 20.1289C32.6504 20.5 32.7285 20.7441 32.8457 20.8613C33.0605 21.0762 33.3047 21.1836 33.5781 21.1836C33.8516 21.1641 34.125 21.0859 34.3984 20.9492C34.6914 20.793 34.9746 20.5977 35.248 20.3633C35.541 20.1289 35.7949 19.8848 36.0098 19.6309C36.2441 19.377 36.4297 19.1426 36.5664 18.9277C36.7227 18.7129 36.8105 18.5566 36.8301 18.459ZM47.084 23.4688C46.3418 23.4688 45.7363 23.3516 45.2676 23.1172C44.7988 22.8828 44.4277 22.5996 44.1543 22.2676C43.9004 21.916 43.7148 21.5449 43.5977 21.1543C43.5 20.7441 43.4512 20.373 43.4512 20.041C43.4512 19.4551 43.5 18.8398 43.5977 18.1953C43.6953 17.5312 43.8125 16.9258 43.9492 16.3789C44.0859 15.8125 44.2031 15.334 44.3008 14.9434C44.418 14.5527 44.4961 14.3086 44.5352 14.2109C44.7109 13.6445 44.9355 13.1562 45.209 12.7461C45.502 12.3164 45.9023 12.0234 46.4102 11.8672C46.6055 11.8281 46.8105 11.7891 47.0254 11.75C47.2012 11.7305 47.377 11.7207 47.5527 11.7207C47.748 11.7207 47.9238 11.75 48.0801 11.8086C47.5527 13.1562 47.1328 14.2793 46.8203 15.1777C46.5273 16.0762 46.3027 16.8086 46.1465 17.375C45.9707 18.0195 45.8633 18.5371 45.8242 18.9277C45.7266 19.8066 45.8047 20.4707 46.0586 20.9199C46.3125 21.3691 46.8301 21.5938 47.6113 21.5938C48.1191 21.5938 48.6074 21.4082 49.0762 21.0371C49.5449 20.6465 49.9746 20.1484 50.3652 19.543C50.3066 19.2305 50.2773 18.9082 50.2773 18.5762C50.2773 17.9512 50.3262 17.3457 50.4238 16.7598C50.541 16.1543 50.668 15.5977 50.8047 15.0898C50.9609 14.5625 51.1172 14.0938 51.2734 13.6836C51.4492 13.2734 51.5957 12.9512 51.7129 12.7168C51.9277 12.248 52.123 11.9648 52.2988 11.8672C52.4746 11.75 52.7578 11.6816 53.1484 11.6621C53.3047 11.6426 53.4316 11.6426 53.5293 11.6621C53.6465 11.6621 53.7441 11.6719 53.8223 11.6914C54.0566 11.75 54.1738 11.8672 54.1738 12.043C54.1738 12.3555 54.1543 12.8242 54.1152 13.4492C54.0762 14.0742 53.959 14.7188 53.7637 15.3828C53.627 15.9297 53.4902 16.3984 53.3535 16.7891C53.2363 17.1602 53.1191 17.4824 53.002 17.7559C52.8848 18.0098 52.7676 18.2246 52.6504 18.4004C52.5332 18.5566 52.4258 18.7031 52.3281 18.8398C52.3672 19.4258 52.416 19.8945 52.4746 20.2461C52.5332 20.5977 52.6016 20.8711 52.6797 21.0664C52.7773 21.2422 52.8848 21.3691 53.002 21.4473C53.1387 21.5059 53.2852 21.5352 53.4414 21.5352C53.7148 21.5352 54.0371 21.4082 54.4082 21.1543C54.7793 20.8809 55.1602 20.5488 55.5508 20.1582C55.9609 19.748 56.3613 19.3086 56.752 18.8398C57.1621 18.3516 57.5332 17.8926 57.8652 17.4629C58.1973 17.0332 58.4805 16.6621 58.7148 16.3496C58.9492 16.0176 59.0957 15.8125 59.1543 15.7344C59.291 15.5586 59.418 15.4512 59.5352 15.4121C59.6719 15.373 59.7793 15.3926 59.8574 15.4707C59.9355 15.5293 59.9746 15.6367 59.9746 15.793C59.9941 15.9297 59.9551 16.0859 59.8574 16.2617C59.4668 17.0039 58.9785 17.7949 58.3926 18.6348C57.8262 19.4551 57.2109 20.2168 56.5469 20.9199C55.9023 21.623 55.248 22.209 54.584 22.6777C53.9199 23.1465 53.2949 23.3809 52.709 23.3809C52.1816 23.3809 51.7617 23.2051 51.4492 22.8535C51.1562 22.4824 50.9023 21.9551 50.6875 21.2715C50.2383 21.9746 49.7109 22.5215 49.1055 22.9121C48.5 23.2832 47.8262 23.4688 47.084 23.4688ZM68.3242 15.5879C68.4023 15.4707 68.5 15.4023 68.6172 15.3828C68.7539 15.3438 68.8613 15.3535 68.9395 15.4121C69.0176 15.4707 69.0566 15.5684 69.0566 15.7051C69.0762 15.8418 69.0273 16.0273 68.9102 16.2617C68.5195 17.0039 68.002 17.8047 67.3574 18.6641C66.7324 19.5234 66.0684 20.334 65.3652 21.0957C64.6621 21.8379 63.9785 22.4531 63.3145 22.9414C62.6504 23.4297 62.0938 23.6738 61.6445 23.6738C61 23.6738 60.4629 23.5469 60.0332 23.293C59.6035 23.0391 59.2617 22.7266 59.0078 22.3555C58.7734 21.9844 58.6074 21.584 58.5098 21.1543C58.4121 20.7051 58.3828 20.2949 58.4219 19.9238C58.4414 19.6113 58.5098 19.0547 58.627 18.2539C58.7441 17.4336 58.9004 16.4961 59.0957 15.4414C59.291 14.3672 59.5059 13.2246 59.7402 12.0137C59.9941 10.7832 60.2578 9.60156 60.5312 8.46875C60.1992 8.50781 59.8672 8.54688 59.5352 8.58594C59.2031 8.625 58.9004 8.64453 58.627 8.64453C58.002 8.64453 57.416 8.57617 56.8691 8.43945C56.3027 8.2832 55.8828 8.13672 55.6094 8C55.4531 7.92188 55.3848 7.81445 55.4043 7.67773C55.4238 7.52148 55.4824 7.375 55.5801 7.23828C55.6777 7.08203 55.8047 6.95508 55.9609 6.85742C56.0977 6.74023 56.2246 6.68164 56.3418 6.68164C56.7129 6.7207 57.1133 6.75977 57.543 6.79883C57.9727 6.81836 58.4414 6.81836 58.9492 6.79883C59.3203 6.7793 59.6719 6.75 60.0039 6.71094C60.3555 6.67187 60.6973 6.62305 61.0293 6.56445C61.2832 5.62695 61.5273 4.81641 61.7617 4.13281C62.0156 3.42969 62.2402 2.94141 62.4355 2.66797C62.4941 2.57031 62.6211 2.49219 62.8164 2.43359C63.0312 2.35547 63.2559 2.30664 63.4902 2.28711C63.7246 2.24805 63.9492 2.24805 64.1641 2.28711C64.3789 2.30664 64.5352 2.375 64.6328 2.49219C64.7305 2.64844 64.7695 3.04883 64.75 3.69336C64.7305 4.33789 64.623 5.1582 64.4277 6.1543C65.248 6.1543 65.9707 6.20312 66.5957 6.30078C67.2402 6.37891 67.7871 6.47656 68.2363 6.59375C68.6855 6.69141 69.0469 6.79883 69.3203 6.91602C69.5938 7.01367 69.7988 7.08203 69.9355 7.12109C70.0723 7.16016 70.1406 7.25781 70.1406 7.41406C70.1602 7.57031 70.1309 7.73633 70.0527 7.91211C69.9941 8.06836 69.8867 8.20508 69.7305 8.32227C69.5742 8.43945 69.3984 8.47852 69.2031 8.43945C69.0078 8.41992 68.7832 8.38086 68.5293 8.32227C68.2949 8.26367 68.002 8.21484 67.6504 8.17578C67.3184 8.13672 66.918 8.09766 66.4492 8.05859C65.9805 8.01953 65.4336 8 64.8086 8C64.6914 8 64.5547 8.00977 64.3984 8.0293C64.2617 8.0293 64.1152 8.0293 63.959 8.0293C63.8809 8.3418 63.8027 8.6543 63.7246 8.9668C63.666 9.25977 63.5781 9.57227 63.4609 9.9043C63.207 10.6855 62.9141 11.5352 62.582 12.4531C62.2891 13.2539 61.9375 14.1719 61.5273 15.207C61.1172 16.2422 60.6582 17.3457 60.1504 18.5176C60.0332 19.3574 60.043 20.002 60.1797 20.4512C60.3359 20.8809 60.5215 21.1934 60.7363 21.3887C60.9902 21.6035 61.3027 21.7207 61.6738 21.7402C61.9668 21.7793 62.3184 21.6816 62.7285 21.4473C63.1582 21.1934 63.5977 20.8613 64.0469 20.4512C64.4961 20.041 64.9453 19.5918 65.3945 19.1035C65.8633 18.6152 66.293 18.1367 66.6836 17.668C67.0742 17.1992 67.416 16.7793 67.709 16.4082C68.002 16.0176 68.207 15.7441 68.3242 15.5879ZM74.2715 12.2188C74.5254 12.0234 74.7695 11.877 75.0039 11.7793C75.2578 11.6621 75.4824 11.584 75.6777 11.5449C75.8926 11.4863 76.1074 11.4668 76.3223 11.4863C76.8496 11.5254 77.1719 11.6914 77.2891 11.9844C77.4258 12.2773 77.4453 12.7461 77.3477 13.3906C77.2891 13.7227 77.1719 14.1426 76.9961 14.6504C76.8203 15.1582 76.6152 15.7832 76.3809 16.5254C76.1465 17.248 75.8926 18.0781 75.6191 19.0156C75.3652 19.9531 75.1211 21.0078 74.8867 22.1797C74.6523 23.1367 74.3984 24.2402 74.125 25.4902C73.8906 26.584 73.6074 27.9023 73.2754 29.4453C72.9629 30.9883 72.6211 32.7559 72.25 34.748C72.1523 35.2363 71.9375 35.5195 71.6055 35.5977C71.293 35.6758 70.9609 35.6367 70.6094 35.4805C70.4727 35.4023 70.3457 35.3145 70.2285 35.2168C70.1309 35.1191 70.0234 35.002 69.9062 34.8652C69.7891 34.748 69.6914 34.582 69.6133 34.3672C70.0625 32.7266 70.4531 31.2324 70.7852 29.8848C71.1367 28.5371 71.4492 27.3652 71.7227 26.3691C72.0156 25.2168 72.2891 24.1816 72.543 23.2637C72.6406 22.8535 72.7285 22.4531 72.8066 22.0625C72.9043 21.6523 73.002 21.252 73.0996 20.8613C72.8457 21.2715 72.5723 21.6621 72.2793 22.0332C71.9863 22.4043 71.6641 22.7266 71.3125 23C70.9609 23.2734 70.5801 23.4785 70.1699 23.6152C69.7793 23.7715 69.3691 23.8203 68.9395 23.7617C67.8848 23.625 67.1328 23.2344 66.6836 22.5898C66.2539 21.9453 66.0684 21.1055 66.127 20.0703C66.1465 19.6602 66.2051 19.2109 66.3027 18.7227C66.4004 18.2344 66.5078 17.7656 66.625 17.3164C66.7422 16.8672 66.8496 16.4668 66.9473 16.1152C67.0645 15.7441 67.1523 15.4805 67.2109 15.3242C67.4453 14.582 67.6113 13.9473 67.709 13.4199C67.8262 12.8926 67.748 12.4531 67.4746 12.1016C67.748 11.9258 68.002 11.8086 68.2363 11.75C68.4902 11.6719 68.7148 11.6133 68.9102 11.5742C69.125 11.5547 69.3398 11.5547 69.5547 11.5742C70.082 11.6523 70.3848 11.8477 70.4629 12.1602C70.5605 12.4727 70.5312 12.9414 70.375 13.5664C70.2969 13.8984 70.1699 14.3281 69.9941 14.8555C69.8184 15.3633 69.6328 15.8906 69.4375 16.4375C69.2422 16.9844 69.0664 17.4922 68.9102 17.9609C68.7539 18.4102 68.666 18.7324 68.6465 18.9277C68.4707 19.8066 68.4609 20.4902 68.6172 20.9785C68.7734 21.4473 69.1152 21.6816 69.6426 21.6816C69.8965 21.6816 70.1797 21.5742 70.4922 21.3594C70.8047 21.125 71.1172 20.8223 71.4297 20.4512C71.7617 20.0801 72.084 19.6602 72.3965 19.1914C72.709 18.7031 72.9922 18.2148 73.2461 17.7266C73.5195 17.2383 73.7539 16.7598 73.9492 16.291C74.1641 15.8223 74.3203 15.4023 74.418 15.0312C74.5547 14.3086 74.6426 13.7422 74.6816 13.332C74.7207 12.9219 74.584 12.5508 74.2715 12.2188ZM92.0254 16.9062C91.4395 17.7656 90.7754 18.6055 90.0332 19.4258C89.291 20.2266 88.5 20.9492 87.6602 21.5938C86.8398 22.2188 85.9902 22.7266 85.1113 23.1172C84.252 23.5078 83.4121 23.7031 82.5918 23.7031C82.1621 23.7031 81.6934 23.5957 81.1855 23.3809C80.6973 23.1855 80.248 22.873 79.8379 22.4434C79.4277 22.0137 79.0957 21.457 78.8418 20.7734C78.6074 20.0898 78.5391 19.2598 78.6367 18.2832C78.7148 17.4824 78.959 16.6426 79.3691 15.7637C79.7988 14.8652 80.3164 14.0449 80.9219 13.3027C81.5469 12.5605 82.2402 11.9453 83.002 11.457C83.7832 10.9688 84.5645 10.7246 85.3457 10.7246C86.0879 10.7246 86.625 10.9102 86.957 11.2812C87.2891 11.6523 87.4355 12.1113 87.3965 12.6582C87.3379 13.2637 87.1621 13.8203 86.8691 14.3281C86.5957 14.8359 86.2637 15.2949 85.873 15.7051C85.4824 16.1152 85.0625 16.4863 84.6133 16.8184C84.1836 17.1504 83.7734 17.4531 83.3828 17.7266C82.9531 18.0195 82.543 18.3027 82.1523 18.5762C81.7617 18.8301 81.4199 19.0645 81.127 19.2793C81.1465 19.7676 81.2344 20.1777 81.3906 20.5098C81.5469 20.8418 81.7422 21.1152 81.9766 21.3301C82.2109 21.5254 82.4746 21.6719 82.7676 21.7695C83.0801 21.8477 83.3926 21.8867 83.7051 21.8867C84.3691 21.8867 85.0625 21.6816 85.7852 21.2715C86.5078 20.8418 87.2109 20.334 87.8945 19.748C88.5977 19.1426 89.2422 18.5176 89.8281 17.873C90.4336 17.2285 90.9316 16.6719 91.3223 16.2031C91.459 16.0469 91.5957 15.959 91.7324 15.9395C91.8887 15.9004 92.0059 15.9199 92.084 15.998C92.1816 16.0566 92.2305 16.1738 92.2305 16.3496C92.2305 16.5059 92.1621 16.6914 92.0254 16.9062ZM84.5254 12.3945C84.291 12.3945 84.0078 12.5117 83.6758 12.7461C83.3633 12.9805 83.0508 13.3223 82.7383 13.7715C82.4258 14.2012 82.1328 14.7383 81.8594 15.3828C81.5859 16.0078 81.3809 16.7305 81.2441 17.5508C81.4785 17.375 81.7324 17.1992 82.0059 17.0234C82.2793 16.8281 82.5527 16.623 82.8262 16.4082C83.666 15.7637 84.252 15.1973 84.584 14.709C84.916 14.2207 85.1016 13.8008 85.1406 13.4492C85.1797 13.0781 85.1406 12.8145 85.0234 12.6582C84.9062 12.4824 84.7402 12.3945 84.5254 12.3945ZM87.8066 35.5098C87.6699 35.4512 87.5332 35.3633 87.3965 35.2461C87.2793 35.1484 87.1621 35.0215 87.0449 34.8652C86.9277 34.7285 86.8301 34.5527 86.752 34.3379C87.2988 32.248 87.7676 30.4316 88.1582 28.8887C88.5293 27.3457 88.8516 26.0566 89.125 25.0215C89.418 23.8105 89.6719 22.7949 89.8867 21.9746C90.082 21.1934 90.2773 20.4121 90.4727 19.6309C90.6289 18.9473 90.7949 18.2148 90.9707 17.4336C91.166 16.6523 91.3418 15.9199 91.498 15.2363C91.6934 14.4746 91.8105 13.8691 91.8496 13.4199C91.8887 12.9512 91.7422 12.5508 91.4102 12.2188C91.6445 12.0234 91.8789 11.877 92.1133 11.7793C92.3672 11.6621 92.5918 11.584 92.7871 11.5449C93.002 11.4863 93.2168 11.4668 93.4316 11.4863C93.959 11.5254 94.2812 11.6914 94.3984 11.9844C94.5352 12.2773 94.5547 12.7461 94.457 13.3906C94.4375 13.4883 94.418 13.5762 94.3984 13.6543C94.3984 13.7129 94.3984 13.7812 94.3984 13.8594C94.6719 13.5469 94.9746 13.2441 95.3066 12.9512C95.6387 12.6582 95.9707 12.3945 96.3027 12.1602C96.6543 11.9258 97.0059 11.7402 97.3574 11.6035C97.7285 11.4473 98.0801 11.3691 98.4121 11.3691C98.8613 11.3691 99.2227 11.4863 99.4961 11.7207C99.7891 11.9355 100.014 12.2285 100.17 12.5996C100.326 12.9707 100.424 13.3906 100.463 13.8594C100.502 14.3086 100.512 14.7578 100.492 15.207C100.473 15.6953 100.385 16.2129 100.229 16.7598C100.092 17.3066 99.8965 17.8633 99.6426 18.4297C99.3887 18.9961 99.0957 19.5527 98.7637 20.0996C98.4316 20.6465 98.0801 21.1543 97.709 21.623C97.7871 21.6426 97.8359 21.6621 97.8555 21.6816C97.875 21.6816 97.8848 21.6914 97.8848 21.7109C97.8848 21.7109 97.8945 21.7207 97.9141 21.7402C97.9531 21.7402 98.0215 21.7402 98.1191 21.7402C98.5684 21.7402 99.0273 21.623 99.4961 21.3887C99.9648 21.1543 100.424 20.8613 100.873 20.5098C101.322 20.1387 101.752 19.7383 102.162 19.3086C102.592 18.8789 102.973 18.4688 103.305 18.0781C103.656 17.668 103.949 17.3066 104.184 16.9941C104.418 16.6621 104.594 16.4277 104.711 16.291C104.867 16.0957 105.014 15.9688 105.15 15.9102C105.287 15.832 105.395 15.8223 105.473 15.8809C105.551 15.9395 105.59 16.0566 105.59 16.2324C105.59 16.3887 105.531 16.5938 105.414 16.8477C105.336 17.0234 105.17 17.3066 104.916 17.6973C104.662 18.0879 104.35 18.5273 103.979 19.0156C103.607 19.5039 103.178 20.0117 102.689 20.5391C102.221 21.0664 101.723 21.5449 101.195 21.9746C100.668 22.4043 100.121 22.7559 99.5547 23.0293C99.0078 23.3223 98.4707 23.4688 97.9434 23.4688C97.6895 23.4688 97.4844 23.459 97.3281 23.4395C97.1719 23.4199 97.0352 23.3809 96.918 23.3223C96.8203 23.2832 96.7227 23.2344 96.625 23.1758C96.5273 23.1367 96.4102 23.0879 96.2734 23.0293C95.9219 23.3027 95.5605 23.5078 95.1895 23.6445C94.8184 23.8008 94.457 23.8789 94.1055 23.8789C93.7734 23.8789 93.4805 23.8203 93.2266 23.7031C92.9922 23.6055 92.7969 23.459 92.6406 23.2637C92.4844 23.0879 92.3574 22.8926 92.2598 22.6777C92.1621 22.4434 92.084 22.2188 92.0254 22.0039C92.0059 22.082 91.9863 22.1504 91.9668 22.209C91.9668 22.2676 91.957 22.3457 91.9375 22.4434C91.7031 23.3809 91.459 24.4648 91.2051 25.6953C90.9902 26.75 90.7266 28.0293 90.4141 29.5332C90.1211 31.0566 89.8086 32.7852 89.4766 34.7188C89.3594 35.2461 89.1543 35.5488 88.8613 35.627C88.5488 35.7051 88.1973 35.666 87.8066 35.5098ZM93.168 17.3457C93.0703 17.6777 92.9629 18.0684 92.8457 18.5176C92.748 18.9473 92.6309 19.4648 92.4941 20.0703C92.6504 19.9531 92.8262 19.8652 93.0215 19.8066C93.2168 19.748 93.4121 19.7188 93.6074 19.7188C93.8223 19.7188 94.0957 19.8359 94.4277 20.0703C94.7598 20.2852 95.1602 20.5195 95.6289 20.7734C95.9219 20.4219 96.2246 20.0312 96.5371 19.6016C96.8691 19.1523 97.1621 18.6934 97.416 18.2246C97.6895 17.7559 97.9141 17.2773 98.0898 16.7891C98.2852 16.3008 98.3926 15.832 98.4121 15.3828C98.4512 14.7969 98.3828 14.3379 98.207 14.0059C98.0312 13.6738 97.7383 13.5078 97.3281 13.5078C96.7227 13.5078 96.0586 13.8691 95.3359 14.5918C94.6328 15.2949 93.9102 16.2129 93.168 17.3457ZM109.896 5.74414C109.838 5.95898 109.721 6.17383 109.545 6.38867C109.389 6.58398 109.203 6.75 108.988 6.88672C108.793 7.00391 108.588 7.08203 108.373 7.12109C108.158 7.16016 107.982 7.12109 107.846 7.00391C107.436 6.69141 107.221 6.35938 107.201 6.00781C107.182 5.63672 107.27 5.29492 107.465 4.98242C107.66 4.65039 107.904 4.37695 108.197 4.16211C108.49 3.92773 108.744 3.79102 108.959 3.75195C109.174 3.71289 109.35 3.76172 109.486 3.89844C109.643 4.01562 109.76 4.18164 109.838 4.39648C109.916 4.5918 109.955 4.81641 109.955 5.07031C109.975 5.32422 109.955 5.54883 109.896 5.74414ZM105.854 11.9844C105.951 11.8672 106.137 11.7695 106.41 11.6914C106.684 11.6133 106.967 11.5547 107.26 11.5156C107.553 11.457 107.816 11.4277 108.051 11.4277C108.305 11.4082 108.451 11.4082 108.49 11.4277C108.51 11.4473 108.461 11.6523 108.344 12.043C108.227 12.4336 108.08 12.8926 107.904 13.4199C107.729 13.9473 107.543 14.4941 107.348 15.0605C107.152 15.6074 107.006 16.0566 106.908 16.4082C106.811 16.7598 106.693 17.1602 106.557 17.6094C106.42 18.0391 106.293 18.4688 106.176 18.8984C106.078 19.3086 106.01 19.6992 105.971 20.0703C105.932 20.4414 105.961 20.7246 106.059 20.9199C106.156 21.1543 106.264 21.3203 106.381 21.418C106.498 21.4961 106.625 21.5352 106.762 21.5352C107.152 21.5352 107.641 21.3203 108.227 20.8906C108.832 20.4609 109.438 19.9531 110.043 19.3672C110.668 18.7617 111.244 18.1562 111.771 17.5508C112.299 16.9258 112.689 16.4277 112.943 16.0566C113.1 15.8613 113.256 15.7344 113.412 15.6758C113.588 15.6172 113.725 15.627 113.822 15.7051C113.939 15.7832 113.998 15.9102 113.998 16.0859C114.018 16.2617 113.959 16.4668 113.822 16.7012C113.51 17.248 113.051 17.9023 112.445 18.6641C111.84 19.4062 111.195 20.1289 110.512 20.832C109.828 21.5156 109.154 22.1016 108.49 22.5898C107.846 23.0781 107.318 23.332 106.908 23.3516C106.576 23.3711 106.244 23.3125 105.912 23.1758C105.6 23.0586 105.307 22.8926 105.033 22.6777C104.779 22.4434 104.564 22.1797 104.389 21.8867C104.213 21.5742 104.115 21.252 104.096 20.9199C104.037 20.4316 104.037 19.7676 104.096 18.9277C104.154 18.0684 104.262 17.1992 104.418 16.3203C104.574 15.4219 104.77 14.5723 105.004 13.7715C105.258 12.9707 105.541 12.375 105.854 11.9844ZM111.244 22.5312C112.104 18.918 112.787 16.0176 113.295 13.8301C113.822 11.6426 114.223 9.97266 114.496 8.82031C114.809 7.45313 115.023 6.50586 115.141 5.97852C115.199 5.60742 115.248 5.24609 115.287 4.89453C115.326 4.58203 115.346 4.25977 115.346 3.92773C115.346 3.5957 115.316 3.29297 115.258 3.01953C115.414 2.92187 115.58 2.84375 115.756 2.78516C115.951 2.72656 116.137 2.67773 116.312 2.63867C116.527 2.58008 116.742 2.53125 116.957 2.49219C117.172 2.45312 117.367 2.43359 117.543 2.43359C117.699 2.43359 117.846 2.45312 117.982 2.49219C118.119 2.51172 118.207 2.57031 118.246 2.66797C118.363 2.76563 118.412 2.96094 118.393 3.25391C118.393 3.54688 118.373 3.84961 118.334 4.16211C118.256 4.5332 118.168 4.93359 118.07 5.36328C117.836 6.20312 117.514 7.41406 117.104 8.99609C116.752 10.3438 116.273 12.1797 115.668 14.5039C115.082 16.8281 114.34 19.7578 113.441 23.293C113.344 23.3906 113.227 23.459 113.09 23.498C112.953 23.5371 112.826 23.5566 112.709 23.5566C112.572 23.5566 112.426 23.5469 112.27 23.5273C112.133 23.4883 111.996 23.4297 111.859 23.3516C111.742 23.2734 111.625 23.166 111.508 23.0293C111.391 22.9121 111.303 22.7461 111.244 22.5312Z" fill="black"/>
</svg>
