<svg width="52" height="52" viewBox="0 0 52 52" fill="none" xmlns="http://www.w3.org/2000/svg">
<g clip-path="url(#clip0)">
<path d="M52 26.0006C52 11.6665 40.3376 0.00405884 26.0034 0.00405884C25.4203 0.00405884 24.9538 0.470555 24.9538 1.05368V10.6699H24.4661C19.5997 10.6699 15.6345 14.6245 15.6345 19.5015V32.5104C15.6345 37.3768 19.5891 41.342 24.4661 41.342H27.5301C32.3965 41.342 36.3618 37.3874 36.3618 32.5104V19.4909C36.3618 14.6245 32.4071 10.6593 27.5301 10.6593H27.0424V2.11389C39.7439 2.66521 49.9007 13.172 49.9007 26.0006C49.9007 34.44 45.5857 42.0841 38.3656 46.4628C30.9016 50.9794 21.7944 51.0536 13.3868 46.6643C9.93051 44.8513 7.14214 42.0629 5.32917 38.596C-0.321799 27.75 1.54419 15.8013 10.0895 8.17834C10.5242 7.79667 10.556 7.12873 10.1744 6.69404C9.79268 6.25935 9.12475 6.22754 8.69006 6.60922C4.43858 10.4048 1.51238 15.5575 0.452161 21.1236C-0.692875 27.1775 0.346139 33.56 3.46318 39.5502C5.46699 43.4094 8.56283 46.5052 12.4114 48.5091C16.8643 50.8415 21.5081 51.9972 26.0458 51.9972C30.7426 51.9972 35.3333 50.7461 39.4576 48.244C47.3138 43.4942 52 35.1715 52 26.0006ZM27.5407 12.7585C31.2515 12.7585 34.2731 15.7801 34.2731 19.4909V32.4998C34.2731 36.2105 31.2515 39.2321 27.5407 39.2321H24.4767C20.7659 39.2321 17.7443 36.2105 17.7443 32.4998V19.4909C17.7443 15.7801 20.7659 12.7585 24.4767 12.7585H27.5407Z" fill="#2C2F33"/>
<path d="M25.9541 26.0551C27.0652 26.0551 27.9541 25.4156 27.9541 24.6161V17.494C27.9541 16.6946 27.0652 16.0551 25.9541 16.0551C24.843 16.0551 23.9541 16.6946 23.9541 17.494V24.6161C23.9541 25.401 24.843 26.0551 25.9541 26.0551Z" fill="#EC9C0B"/>
</g>
<defs>
<clipPath id="clip0">
<rect width="52" height="52" fill="white"/>
</clipPath>
</defs>
</svg>
